# xmcd
#
# Track frame offsets: 
#        150
#        2043
#        30613
#        48915
#        82713
#        102853
#        130666
#        164586
#        183773
#        215519
#        236434
#
# Disc length: 3695 seconds
#
# Revision: 0
# Processed by: cddbd v1.5.1PL0 Copyright (c) Steve Scherf et al.
# Submitted via: ExactAudioCopy v0.95a5
#
DISCID=7c0e6d0b
DTITLE=Microwave Dave - American Peasant
DYEAR=2004
DGENRE=Blues
TTITLE0=Introduction
TTITLE1=Gambling for my Bread
TTITLE2=Unity
TTITLE3=Trail of Tears
TTITLE4=Soul of a Man
TTITLE5=Anna Lee
TTITLE6=Little Wheel
TTITLE7=You Got to Move
TTITLE8=Goin' to Brownsville
TTITLE9=Backwater Blues
TTITLE10=Too Tall to Mambo
EXTD=
EXTT0=
EXTT1=
EXTT2=
EXTT3=
EXTT4=
EXTT5=
EXTT6=
EXTT7=
EXTT8=
EXTT9=
EXTT10=
PLAYORDER=
